HIERARCHY
ROOT SimulationBone
{
	OFFSET 0.000000 0.000000 0.000000
	CHANNELS 6 Xposition Yposition Zposition Zrotation Yrotation Xrotation 
	JOINT Hips
	{
		OFFSET 0.000000 0.000000 0.000000
		CHANNELS 6 Xposition Yposition Zposition Zrotation Yrotation Xrotation 
		JOINT LeftUpLeg
		{
			OFFSET 0.103462 1.857844 10.548508
			CHANNELS 3 Zrotation Yrotation Xrotation
			JOINT LeftLeg
			{
				OFFSET 43.500000 -0.000046 -0.000008
				CHANNELS 3 Zrotation Yrotation Xrotation
				JOINT LeftFoot
				{
					OFFSET 42.372192 0.000000 0.000004
					CHANNELS 3 Zrotation Yrotation Xrotation
					JOINT LeftToe
					{
						OFFSET 17.299997 -0.000003 0.000018
						CHANNELS 3 Zrotation Yrotation Xrotation
						End Site
						{
							OFFSET 0.000000 0.000000 0.000000
						}
					}
				}
			}
		}
		JOINT RightUpLeg
		{
			OFFSET 0.103459 1.857830 -10.548515
			CHANNELS 3 Zrotation Yrotation Xrotation
			JOINT RightLeg
			{
				OFFSET 43.500046 -0.000034 -0.000006
				CHANNELS 3 Zrotation Yrotation Xrotation
				JOINT RightFoot
				{
					OFFSET 42.372253 0.000015 -0.000006
					CHANNELS 3 Zrotation Yrotation Xrotation
					JOINT RightToe
					{
						OFFSET 17.299969 -0.000012 0.000010
						CHANNELS 3 Zrotation Yrotation Xrotation
						End Site
						{
							OFFSET 0.000000 0.000000 0.000000
						}
					}
				}
			}
		}
		JOINT Spine
		{
			OFFSET 6.901964 -2.603727 0.000001
			CHANNELS 3 Zrotation Yrotation Xrotation
			JOINT Spine1
			{
				OFFSET 12.588105 -0.000009 0.000006
				CHANNELS 3 Zrotation Yrotation Xrotation
				JOINT Spine2
				{
					OFFSET 12.343197 0.000007 -0.000002
					CHANNELS 3 Zrotation Yrotation Xrotation
					JOINT Neck
					{
						OFFSET 25.832897 0.000002 -0.000001
						CHANNELS 3 Zrotation Yrotation Xrotation
						JOINT Head
						{
							OFFSET 11.766611 0.000000 0.000004
							CHANNELS 3 Zrotation Yrotation Xrotation
							End Site
							{
								OFFSET 0.000000 0.000000 0.000000
							}
						}
					}
					JOINT LeftShoulder
					{
						OFFSET 19.745911 -1.480377 6.000110
						CHANNELS 3 Zrotation Yrotation Xrotation
						JOINT LeftArm
						{
							OFFSET 11.284108 -0.000006 -0.000027
							CHANNELS 3 Zrotation Yrotation Xrotation
							JOINT LeftForeArm
							{
								OFFSET 33.000046 -0.000010 0.000031
								CHANNELS 3 Zrotation Yrotation Xrotation
								JOINT LeftHand
								{
									OFFSET 25.200014 0.000009 0.000001
									CHANNELS 3 Zrotation Yrotation Xrotation
									End Site
									{
										OFFSET 0.000000 0.000000 0.000000
									}
								}
							}
						}
					}
					JOINT RightShoulder
					{
						OFFSET 19.746105 -1.480358 -6.000092
						CHANNELS 3 Zrotation Yrotation Xrotation
						JOINT RightArm
						{
							OFFSET 11.284138 -0.000011 -0.000001
							CHANNELS 3 Zrotation Yrotation Xrotation
							JOINT RightForeArm
							{
								OFFSET 33.000088 0.000023 -0.000007
								CHANNELS 3 Zrotation Yrotation Xrotation
								JOINT RightHand
								{
									OFFSET 25.199776 0.000128 0.000427
									CHANNELS 3 Zrotation Yrotation Xrotation
									End Site
									{
										OFFSET 0.000000 0.000000 0.000000
									}
								}
							}
						}
					}
				}
			}
		}
	}
}
MOTION
Frames: 9
Frame Time: 0.016667
361.570781 0.000000 220.784497 0.000000 97.908606 0.000000 -0.299038 88.065247 0.958500 89.920035 1.334805 -179.751707 -172.642867 -0.469801 174.116125 -30.274208 3.190898 -7.979808 93.821062 4.550249 -6.530965 21.454560 0.003110 0.000018 149.396153 4.761593 -178.216383 -24.387044 -1.314832 3.812613 76.618076 -1.591840 3.962292 21.454553 -0.003087 0.000001 5.330203 -0.023448 0.116019 0.647506 -0.047419 0.231935 0.329416 -0.046153 0.232204 5.506980 -0.055584 2.050608 -16.117373 -0.294176 2.218132 172.327653 -80.719551 6.278175 11.331314 57.367734 25.808938 -64.361104 -12.500345 2.127551 1.521263 -0.341430 16.211536 -119.782288 84.543988 62.300972 -64.548087 -22.708707 33.067035 -96.349714 1.338460 -2.681074 -12.173368 12.671810 -24.500568 
362.191894 0.000000 218.557511 0.000000 98.971229 0.000000 0.083282 87.956302 0.995882 90.093044 1.879734 179.791935 -171.515384 -1.878474 174.045640 -31.006647 3.303483 -7.565861 91.729461 4.158389 -6.763416 21.454559 0.003097 0.000017 150.421955 4.076272 -179.306728 -20.652448 -0.859503 4.986645 77.749009 -2.311919 4.528180 21.454550 -0.003086 0.000003 5.335735 0.101391 0.029940 0.658679 0.202679 0.060388 0.340575 0.202893 0.059160 5.201862 -1.174049 2.161331 -16.218594 0.123441 1.989625 173.913582 -80.541329 4.674752 11.912627 57.286984 26.637900 -64.282025 -12.607066 2.131295 1.827459 0.465420 17.640533 -117.281039 84.641752 64.808708 -63.031473 -24.396025 32.457421 -97.353020 1.041757 -2.706099 -12.822335 12.304450 -24.539874 
362.751793 0.000000 216.344251 0.000000 99.906225 0.000000 0.408080 87.614403 1.109365 90.441915 2.276989 179.626242 -170.686018 -3.479915 173.716204 -32.763341 3.283714 -6.804694 90.277546 3.425382 -7.596309 21.454560 0.003093 0.000017 151.051723 3.674883 -178.501981 -19.812741 -0.881162 4.707628 74.015323 -1.929584 4.706720 21.454551 -0.003085 0.000003 5.387611 0.153368 -0.035113 0.762277 0.307000 -0.069321 0.444174 0.306428 -0.071175 5.061349 -1.750415 2.059637 -16.403490 0.155224 1.770828 175.414543 -80.612392 3.149794 12.378771 57.296542 27.381678 -64.052782 -12.652007 2.125901 2.466913 0.729456 18.019248 -118.142004 84.262967 63.969950 -61.378524 -25.796985 31.030901 -98.131198 0.876658 -2.728069 -12.903813 12.165190 -24.572200 
363.252693 0.000000 214.142962 0.000000 100.718834 0.000000 0.677801 87.157651 1.319992 90.914466 2.788403 179.656866 -170.506825 -5.409339 173.160452 -35.805612 3.387268 -5.819152 88.562033 2.476027 -8.524385 21.454560 0.003094 0.000019 151.361524 3.233241 -176.616749 -21.261605 -1.087426 3.698187 68.908265 -1.088284 4.474114 21.454553 -0.003085 0.000002 5.477557 0.214715 -0.072657 0.941985 0.430034 -0.143703 0.623887 0.429014 -0.146301 5.059968 -2.068723 1.854763 -16.691040 0.030798 1.548410 177.148009 -80.721784 1.388148 12.713933 57.373024 27.979477 -63.663023 -12.710167 2.115446 3.096112 0.611732 17.713303 -120.720034 83.625157 61.420287 -59.618077 -27.085788 29.100675 -98.640222 0.824079 -2.746376 -12.709188 12.135890 -24.606485 
363.696810 0.000000 211.951892 0.000000 101.414396 0.000000 0.894568 86.704147 1.649853 91.450112 3.673423 179.792879 -171.329203 -7.817901 172.441144 -40.399106 3.881529 -4.758142 85.659280 1.439477 -9.025187 21.454558 0.003097 0.000022 151.427151 2.455707 -174.471240 -24.392776 -1.259710 2.700394 65.940646 -0.455802 3.909149 21.454555 -0.003088 0.000001 5.597191 0.367580 -0.076015 1.181067 0.735933 -0.148503 0.862952 0.734881 -0.152951 5.170039 -2.412096 1.659111 -17.102007 -0.020513 1.307929 179.287343 -80.653708 -0.781244 12.898884 57.493204 28.367168 -63.102184 -12.856544 2.103029 3.387323 0.267415 17.090165 -123.575272 82.940078 58.590010 -57.782061 -28.453578 26.972305 -98.835951 0.864983 -2.758577 -12.529060 12.098081 -24.648754 
364.086358 0.000000 209.769284 0.000000 101.998249 0.000000 1.062240 86.349215 2.092326 91.981979 5.041100 179.947876 -173.354288 -10.703885 171.750892 -46.597886 4.903676 -3.859094 81.032022 0.522736 -8.675807 21.454554 0.003098 0.000025 151.347354 1.208707 -172.776311 -28.524907 -1.151046 2.268843 67.451959 -0.449193 3.208718 21.454554 -0.003094 0.000000 5.736224 0.657281 -0.039206 1.459302 1.315043 -0.070516 1.141113 1.314449 -0.078465 5.343970 -3.010015 1.556347 -17.615927 0.160198 1.036621 -178.199220 -80.251531 -3.325624 12.913151 57.675905 28.506462 -62.292728 -13.152592 2.089384 3.122426 -0.268806 16.398240 -126.064117 82.413894 56.113849 -55.865575 -30.061243 24.860632 -98.647423 0.976674 -2.759042 -12.592407 12.005132 -24.664245 
364.423554 0.000000 207.593385 0.000000 102.475653 0.000000 1.193790 86.097076 2.523215 92.433555 6.400384 -179.966877 -176.179607 -13.370296 171.605593 -53.585756 6.028737 -3.476243 75.792388 0.121019 -7.576964 21.454553 0.003099 0.000024 151.355010 -0.018204 -171.811523 -32.613900 -0.604460 2.279214 71.094618 -0.800177 2.493628 21.454553 -0.003101 -0.000000 5.876412 0.982101 0.039411 1.741051 1.963577 0.093042 1.422739 1.963958 0.081169 5.453158 -3.876636 1.516055 -18.040640 0.452497 0.739715 -175.421154 -79.608854 -6.139700 12.740907 58.108816 28.471414 -60.889790 -13.605550 2.069656 2.527494 -1.391890 15.384081 -128.198286 82.175535 53.974081 -53.735529 -31.878787 22.659751 -97.896656 1.121694 -2.734742 -12.882341 12.099656 -24.455549 
364.710612 0.000000 205.422441 0.000000 102.851749 0.000000 1.298528 85.941449 2.817262 92.748107 7.237618 -179.998852 -179.351897 -15.044563 172.417074 -60.448971 6.712407 -3.832395 71.289136 0.514686 -6.157328 21.454558 0.003101 0.000016 151.694544 -0.711214 -171.544497 -35.736829 0.341033 2.416294 74.049076 -1.164561 1.853618 21.454553 -0.003105 -0.000001 5.999026 1.223314 0.153177 1.989151 2.443947 0.326752 1.670733 2.445735 0.311968 5.451964 -4.941931 1.490084 -18.252804 0.718303 0.428769 -172.473226 -78.879401 -9.132230 12.423564 58.967207 28.327415 -58.611110 -14.161774 2.027761 1.927722 -3.446697 13.711130 -130.364322 82.269293 51.780472 -51.266195 -33.835839 20.142523 -96.405222 1.349962 -2.682221 -13.270715 12.623186 -23.845281 
364.949748 0.000000 203.254696 0.000000 103.131528 0.000000 1.347068 85.925140 2.959901 92.948939 7.546280 -179.983730 177.297326 -15.539502 174.204426 -66.653636 6.785015 -4.975006 68.090783 1.471724 -5.296036 21.454563 0.003106 0.000008 152.415110 -0.865910 -171.086813 -37.840200 1.060467 2.291482 76.320137 -1.275706 1.320307 21.454553 -0.003105 -0.000001 6.091822 1.341139 0.269073 2.177963 2.677169 0.562765 1.859498 2.680383 0.546571 5.707702 -6.014642 1.454165 -18.582119 1.019479 0.104905 -169.691404 -78.220612 -11.962917 12.246557 60.209891 28.016124 -55.702821 -14.578812 1.945755 1.510006 -6.146404 11.190298 -133.904842 82.470673 48.193077 -48.501589 -35.945348 16.934341 -94.099563 2.079264 -2.632697 -13.435466 13.510120 -22.885638 
